<svg xmlns="http://www.w3.org/2000/svg" version="1.1" xmlns:xlink="http://www.w3.org/1999/xlink" xmlns:svgjs="http://svgjs.dev/svgjs" width="1500" height="1500" viewBox="0 0 1500 1500"><rect width="1500" height="1500" fill="#ffffff"></rect><g transform="matrix(0.6666666666666666,0,0,0.6666666666666666,249.39393939393938,656.0617219959686)"><svg viewBox="0 0 396 74" data-background-color="#ffffff" preserveAspectRatio="xMidYMid meet" height="280" width="1500" xmlns="http://www.w3.org/2000/svg" xmlns:xlink="http://www.w3.org/1999/xlink"><g id="tight-bounds" transform="matrix(1,0,0,1,0.2400000000000091,0.23981735159816253)"><svg viewBox="0 0 395.52 73.52036529680366" height="73.52036529680366" width="395.52"><g><svg viewBox="0 0 395.52 73.52036529680366" height="73.52036529680366" width="395.52"><g><svg viewBox="0 0 395.52 73.52036529680366" height="73.52036529680366" width="395.52"><g id="textblocktransform"><svg viewBox="0 0 395.52 73.52036529680366" height="73.52036529680366" width="395.52" id="textblock"><g><svg viewBox="0 0 395.52 73.52036529680366" height="73.52036529680366" width="395.52"><g transform="matrix(1,0,0,1,0,0)"><svg width="395.52" viewBox="1.6 -38.55 262.78 48.849999999999994" height="73.52036529680366" data-palette-color="#1976d2"><g class="wordmark-text-0" data-fill-palette-color="primary" id="text-0"><path d="M6.8 0.1L6.8 0.1Q4.5 0.1 3.05-1.3 1.6-2.7 1.6-4.85L1.6-4.85 1.6-31.3Q1.6-33.5 3.03-35 4.45-36.5 6.8-36.5L6.8-36.5Q9.3-36.5 10.73-35.02 12.15-33.55 12.15-31.4L12.15-31.4 12.15-4.85Q12.15-2.7 10.63-1.3 9.1 0.1 6.8 0.1ZM19.8 0L19.8 0Q17.55 0 16.22-1.33 14.9-2.65 14.9-4.6L14.9-4.6 14.9-21.15Q14.9-23.25 16.17-24.7 17.45-26.15 19.8-26.15L19.8-26.15Q22.1-26.15 23.25-24.7 24.4-23.25 24.4-21.05L24.4-21.05 24.4-18.55 25.3-18.55Q25.3-22.8 27.1-24.48 28.9-26.15 31.55-26.15L31.55-26.15Q34.95-26.15 36.55-24.05 38.15-21.95 38.15-18.55L38.15-18.55 39.05-18.55Q39.05-21.4 40-23.05 40.95-24.7 42.42-25.43 43.9-26.15 45.5-26.15L45.5-26.15Q48.75-26.15 50.27-24.6 51.8-23.05 52.25-20.45 52.7-17.85 52.7-14.6L52.7-14.6 52.7-4.6Q52.7-2.65 51.37-1.33 50.05 0 47.85 0L47.85 0Q45.65 0 44.3-1.33 42.95-2.65 42.95-4.6L42.95-4.6 42.95-13.45Q42.95-15.25 42.5-16.25 42.05-17.25 40.7-17.25L40.7-17.25Q39.25-17.25 38.82-16.15 38.4-15.05 38.4-13.35L38.4-13.35 38.4-4.6Q38.4-2.65 37.15-1.33 35.9 0 33.7 0L33.7 0Q31.45 0 30.12-1.33 28.8-2.65 28.8-4.6L28.8-4.6 28.8-13.45Q28.8-15.25 28.35-16.25 27.9-17.25 26.6-17.25L26.6-17.25Q25.15-17.25 24.77-16.15 24.4-15.05 24.4-13.35L24.4-13.35 24.4-4.6Q24.4-2.65 23.2-1.33 22 0 19.8 0ZM62.7 0L62.7 0Q59 0 56.92-2 54.85-4 54.85-7.6L54.85-7.6Q54.85-11.2 57.25-12.83 59.65-14.45 63.4-14.45L63.4-14.45Q65.6-14.45 67.4-14.15 69.2-13.85 70.65-13.3L70.65-13.3 70.8-13.3 70.8-14.05Q70.8-15.2 69.95-15.88 69.1-16.55 67.8-16.5L67.8-16.5Q66.55-16.5 65.67-16.35 64.8-16.2 63.5-15.85L63.5-15.85Q61.1-15.25 59.35-15.95 57.6-16.65 56.95-18.7L56.95-18.7Q56.35-20.85 57.22-22.3 58.1-23.75 59.9-24.55L59.9-24.55Q61.45-25.3 63.37-25.8 65.3-26.3 67.55-26.3L67.55-26.3Q74.1-26.3 77.17-23.13 80.25-19.95 80.25-12.5L80.25-12.5 80.25-4.75Q80.25-2.7 79-1.35 77.75 0 75.55 0L75.55 0Q73.15 0 71.97-1.35 70.8-2.7 70.8-4.65L70.8-4.65 70.8-5.8 69.8-5.8Q69.8-4.5 69.32-3.15 68.85-1.8 67.37-0.9 65.9 0 62.7 0ZM63.2-10.95L63.2-10.95Q63.2-10.1 63.82-9.75 64.45-9.4 66.55-9.4L66.55-9.4Q68.45-9.4 69.2-9.75 69.95-10.1 69.95-10.95L69.95-10.95Q69.95-11.75 69.2-12.08 68.45-12.4 66.55-12.4L66.55-12.4Q64.45-12.4 63.82-12.08 63.2-11.75 63.2-10.95ZM94.49 10.3L94.49 10.3Q91.44 10.3 89.32 9.65 87.19 9 85.24 7.65L85.24 7.65Q83.54 6.45 82.84 4.3 82.14 2.15 83.54-0.05L83.54-0.05Q84.44-1.4 85.57-1.9 86.69-2.4 87.77-2.33 88.84-2.25 89.64-1.85L89.64-1.85Q91.39-1 92.37-0.63 93.34-0.25 94.59-0.25L94.59-0.25Q96.44-0.25 97.72-1.55 98.99-2.85 98.99-5.2L98.99-5.2 98.99-9.25 98.09-9.25Q97.74-6.6 96.07-5.08 94.39-3.55 91.49-3.55L91.49-3.55Q89.29-3.55 87.19-4.65 85.09-5.75 83.74-8.15 82.39-10.55 82.39-14.5L82.39-14.5Q82.39-20.3 84.94-23.15 87.49-26 91.54-26L91.54-26Q94.34-26 96.34-24.13 98.34-22.25 98.34-18.9L98.34-18.9 98.49-18.95 98.49-21.75Q98.49-23.5 99.62-24.83 100.74-26.15 103.14-26.15L103.14-26.15Q105.69-26.15 106.82-24.83 107.94-23.5 107.94-21.75L107.94-21.75 107.99-6Q108.04-0.8 106.72 2.85 105.39 6.5 102.42 8.4 99.44 10.3 94.49 10.3ZM90.79-15.35L90.79-15.35Q90.79-12.65 94.39-12.65L94.39-12.65Q96.74-12.65 97.69-13.3 98.64-13.95 98.64-15.35L98.64-15.35Q98.64-16.8 97.67-17.35 96.69-17.9 94.34-17.9L94.34-17.9Q92.64-17.9 91.72-17.35 90.79-16.8 90.79-15.35ZM110.34-13L110.34-13Q110.34-16.95 111.92-19.95 113.49-22.95 116.42-24.65 119.34-26.35 123.39-26.35L123.39-26.35Q126.54-26.35 129.06-25.2 131.59-24.05 133.04-22.13 134.49-20.2 134.49-17.9L134.49-17.9Q134.49-15.5 133.09-14.5 131.69-13.5 128.94-13.5L128.94-13.5 118.44-13.5Q118.44-12.2 119.47-11.35 120.49-10.5 122.94-10.5L122.94-10.5Q124.19-10.5 125.27-10.75 126.34-11 127.47-11.23 128.59-11.45 129.99-11.45L129.99-11.45Q131.99-11.45 133.29-10.03 134.59-8.6 134.59-6.1L134.59-6.1Q134.59-3.15 131.56-1.5 128.54 0.15 123.64 0.15L123.64 0.15Q120.19 0.15 117.17-1.2 114.14-2.55 112.24-5.48 110.34-8.4 110.34-13ZM118.59-15.15L126.54-15.15Q127.29-15.15 127.04-15.85L127.04-15.85Q126.84-16.55 125.84-17.3 124.84-18.05 122.94-18.05L122.94-18.05Q120.74-18.05 119.67-17.1 118.59-16.15 118.59-15.15L118.59-15.15ZM150.24 0.3L149.79 0.3Q145.79 0.3 142.84-2.02 139.89-4.35 138.29-8.43 136.69-12.5 136.69-17.65L136.69-17.65Q136.69-22.45 138.11-26.08 139.54-29.7 142.01-32.13 144.49-34.55 147.76-35.77 151.04-37 154.69-37L154.69-37Q161.39-37 164.61-35.13 167.84-33.25 167.84-30.3L167.84-30.3Q167.84-28 166.66-26.25 165.49-24.5 163.14-24.5L163.14-24.5Q161.54-24.5 160.11-24.8 158.69-25.1 157.21-25.38 155.74-25.65 153.94-25.65L153.94-25.65Q149.99-25.65 148.26-23.4 146.54-21.15 146.54-17.75L146.54-17.75Q146.54-15 147.66-13.25 148.79-11.5 150.66-10.68 152.54-9.85 154.84-9.85L154.84-9.85Q156.74-9.85 158.39-10.7 160.04-11.55 160.49-13.85L160.49-13.85 158.04-13.85Q156.29-13.85 155.34-14.93 154.39-16 154.39-17.7L154.39-17.7Q154.39-19.4 155.34-20.45 156.29-21.5 158.04-21.5L158.04-21.5 164.04-21.5Q167.29-21.5 168.61-19.78 169.94-18.05 169.94-14.65L169.94-14.65 169.94-5.3Q169.94-2.7 168.54-1.35 167.14 0 164.84 0L164.84 0Q162.39 0 160.99-1.35 159.59-2.7 159.59-5.3L159.59-5.3 159.59-8.4 158.69-8.4Q158.69-3.85 156.39-1.78 154.09 0.3 150.24 0.3L150.24 0.3ZM176.89 0L176.89 0Q174.44 0 173.21-1.3 171.99-2.6 171.99-4.55L171.99-4.55 171.99-33.55Q171.99-35.7 173.21-37.13 174.44-38.55 176.89-38.55L176.89-38.55Q179.09-38.55 180.28-37.13 181.49-35.7 181.49-33.65L181.49-33.65 181.49-4.55Q181.49-2.6 180.28-1.3 179.09 0 176.89 0ZM196.58 0.1L196.58 0.1Q190.73 0.1 187.26-3.38 183.78-6.85 183.78-13.2L183.78-13.2Q183.78-17.1 185.38-20.05 186.98-23 189.86-24.68 192.73-26.35 196.58-26.35L196.58-26.35Q200.88-26.35 203.73-24.68 206.58-23 208.01-20.05 209.43-17.1 209.43-13.2L209.43-13.2Q209.43-6.85 206.26-3.38 203.08 0.1 196.58 0.1ZM189.73-14.05L189.73-14.05Q189.73-12.5 191.28-11.88 192.83-11.25 196.58-11.25L196.58-11.25Q200.33-11.25 201.88-11.88 203.43-12.5 203.43-14.05L203.43-14.05Q203.43-15.55 201.88-16.15 200.33-16.75 196.58-16.75L196.58-16.75Q192.83-16.75 191.28-16.15 189.73-15.55 189.73-14.05ZM229.23 0L229.23 0Q226.73 0 225.21-1.05 223.68-2.1 222.98-3.83 222.28-5.55 222.18-7.55L222.18-7.55 221.23-7.55 221.23-4.75Q221.23-2.7 219.98-1.35 218.73 0 216.53 0L216.53 0Q214.23 0 213.06-1.35 211.88-2.7 211.88-4.75L211.88-4.75 211.88-33.55Q211.88-35.7 213.03-37.13 214.18-38.55 216.53-38.55L216.53-38.55Q218.88-38.55 220.06-37.13 221.23-35.7 221.23-33.65L221.23-33.65 221.23-18.5 221.43-18.45Q221.93-20.55 222.71-22.3 223.48-24.05 225.03-25.1 226.58-26.15 229.33-26.15L229.33-26.15Q233.58-26.15 235.83-22.68 238.08-19.2 238.08-13.4L238.08-13.4Q238.08-6.75 235.81-3.38 233.53 0 229.23 0ZM221.13-13.8L221.13-13.8Q221.13-13.55 221.16-13.33 221.18-13.1 221.23-12.85L221.23-12.85Q221.48-11.8 222.46-11.28 223.43-10.75 225.53-10.75L225.53-10.75Q228.03-10.75 228.96-11.5 229.88-12.25 229.88-13.8L229.88-13.8Q229.88-15.4 228.98-16.15 228.08-16.9 225.58-16.9L225.58-16.9Q223.43-16.9 222.46-16.38 221.48-15.85 221.23-14.75L221.23-14.75Q221.18-14.55 221.16-14.33 221.13-14.1 221.13-13.8ZM240.13-13L240.13-13Q240.13-16.95 241.7-19.95 243.28-22.95 246.2-24.65 249.13-26.35 253.18-26.35L253.18-26.35Q256.33-26.35 258.85-25.2 261.38-24.05 262.83-22.13 264.28-20.2 264.28-17.9L264.28-17.9Q264.28-15.5 262.88-14.5 261.48-13.5 258.73-13.5L258.73-13.5 248.23-13.5Q248.23-12.2 249.25-11.35 250.28-10.5 252.73-10.5L252.73-10.5Q253.98-10.5 255.05-10.75 256.13-11 257.25-11.23 258.38-11.45 259.78-11.45L259.78-11.45Q261.78-11.45 263.08-10.03 264.38-8.6 264.38-6.1L264.38-6.1Q264.38-3.15 261.35-1.5 258.33 0.15 253.43 0.15L253.43 0.15Q249.98 0.15 246.95-1.2 243.93-2.55 242.03-5.48 240.13-8.4 240.13-13ZM248.38-15.15L256.33-15.15Q257.08-15.15 256.83-15.85L256.83-15.85Q256.63-16.55 255.63-17.3 254.63-18.05 252.73-18.05L252.73-18.05Q250.53-18.05 249.45-17.1 248.38-16.15 248.38-15.15L248.38-15.15Z" fill="#1976d2" data-fill-palette-color="primary"></path></g></svg></g></svg></g></svg></g></svg></g></svg></g><defs></defs></svg><rect width="395.52" height="73.52036529680366" fill="none" stroke="none" visibility="hidden"></rect></g></svg></g></svg>